<?xml version="1.0"?>
<svg width="40" height="38" xmlns="http://www.w3.org/2000/svg" xmlns:svg="http://www.w3.org/2000/svg">
 <!-- Generator: Sketch 52.6 (67491) - http://www.bohemiancoding.com/sketch -->
 <title>classroom</title>
 <desc>Created with Sketch.</desc>
 <g class="layer">
  <title>Layer 1</title>
  <g fill="none" fill-rule="evenodd" id="Collection">
   <g id="System-Icons" stroke="#1abda0" transform="translate(-356.000000, -1648.000000)">
    <g id="disposition/salle-seche/salle-de-classe" transform="translate(356.000000, 1647.000000)">
     <g id="Group" transform="translate(22.000000, 1.000000)">
      <circle cx="5" cy="14" fill="#1cedc7" fill-rule="nonzero" id="chair-2" r="2.5"/>
      <circle cx="13" cy="14" fill="#1cedc7" fill-rule="nonzero" id="chair-2-Copy" r="2.5"/>
      <path d="m2.563885,0.5c-0.737334,0 -1.016865,0.05398 -1.304931,0.208039c-0.238792,0.127707 -0.423208,0.312123 -0.550915,0.550915c-0.154059,0.288066 -0.208039,0.567597 -0.208039,1.304931l0,4.87223c0,0.737334 0.05398,1.016865 0.208039,1.304931c0.127707,0.238792 0.312123,0.423207 0.550915,0.550915c0.288066,0.154059 0.567597,0.208039 1.304931,0.208039l12.87223,0c0.737334,0 1.016865,-0.05398 1.304931,-0.208039c0.238792,-0.127708 0.423208,-0.312123 0.550915,-0.550915c0.154059,-0.288066 0.208039,-0.567597 0.208039,-1.304931l0,-4.87223c0,-0.737334 -0.05398,-1.016865 -0.208039,-1.304931c-0.127707,-0.238792 -0.312123,-0.423208 -0.550915,-0.550915c-0.288066,-0.154059 -0.567597,-0.208039 -1.304931,-0.208039l-12.87223,0z" fill="#1abda0" fill-rule="nonzero" id="Rectangle"/>
     </g>
     <g id="Group-Copy-2" transform="translate(22.000000, 22.000000)">
      <circle cx="5" cy="14" fill="#1cedc7" fill-rule="nonzero" id="chair-2" r="2.5"/>
      <circle cx="13" cy="14" fill="#1cedc7" fill-rule="nonzero" id="chair-2-Copy" r="2.5"/>
      <path d="m2.563885,0.5c-0.737334,0 -1.016865,0.05398 -1.304931,0.208039c-0.238792,0.127707 -0.423208,0.312123 -0.550915,0.550915c-0.154059,0.288066 -0.208039,0.567597 -0.208039,1.304931l0,4.87223c0,0.737334 0.05398,1.016865 0.208039,1.304931c0.127707,0.238792 0.312123,0.423207 0.550915,0.550915c0.288066,0.154059 0.567597,0.208039 1.304931,0.208039l12.87223,0c0.737334,0 1.016865,-0.05398 1.304931,-0.208039c0.238792,-0.127708 0.423208,-0.312123 0.550915,-0.550915c0.154059,-0.288066 0.208039,-0.567597 0.208039,-1.304931l0,-4.87223c0,-0.737334 -0.05398,-1.016865 -0.208039,-1.304931c-0.127707,-0.238792 -0.312123,-0.423208 -0.550915,-0.550915c-0.288066,-0.154059 -0.567597,-0.208039 -1.304931,-0.208039l-12.87223,0z" fill="#1abda0" fill-rule="nonzero" id="Rectangle"/>
     </g>
     <g id="Group-Copy" transform="translate(0.000000, 1.000000)">
      <circle cx="5" cy="14" fill="#1cedc7" fill-rule="nonzero" id="chair-2" r="2.5"/>
      <circle cx="13" cy="14" fill="#1cedc7" fill-rule="nonzero" id="chair-2-Copy" r="2.5"/>
      <path d="m2.563885,0.5c-0.737334,0 -1.016865,0.05398 -1.304931,0.208039c-0.238792,0.127707 -0.423208,0.312123 -0.550915,0.550915c-0.154059,0.288066 -0.208039,0.567597 -0.208039,1.304931l0,4.87223c0,0.737334 0.05398,1.016865 0.208039,1.304931c0.127707,0.238792 0.312123,0.423207 0.550915,0.550915c0.288066,0.154059 0.567597,0.208039 1.304931,0.208039l12.87223,0c0.737334,0 1.016865,-0.05398 1.304931,-0.208039c0.238792,-0.127708 0.423208,-0.312123 0.550915,-0.550915c0.154059,-0.288066 0.208039,-0.567597 0.208039,-1.304931l0,-4.87223c0,-0.737334 -0.05398,-1.016865 -0.208039,-1.304931c-0.127707,-0.238792 -0.312123,-0.423208 -0.550915,-0.550915c-0.288066,-0.154059 -0.567597,-0.208039 -1.304931,-0.208039l-12.87223,0z" fill="#1abda0" fill-rule="nonzero" id="Rectangle"/>
     </g>
     <g id="Group-Copy-3" transform="translate(0.000000, 22.000000)">
      <circle cx="5" cy="14" fill="#1cedc7" fill-rule="nonzero" id="chair-2" r="2.5"/>
      <circle cx="13" cy="14" fill="#1cedc7" fill-rule="nonzero" id="chair-2-Copy" r="2.5"/>
      <path d="m2.563885,0.5c-0.737334,0 -1.016865,0.05398 -1.304931,0.208039c-0.238792,0.127707 -0.423208,0.312123 -0.550915,0.550915c-0.154059,0.288066 -0.208039,0.567597 -0.208039,1.304931l0,4.87223c0,0.737334 0.05398,1.016865 0.208039,1.304931c0.127707,0.238792 0.312123,0.423207 0.550915,0.550915c0.288066,0.154059 0.567597,0.208039 1.304931,0.208039l12.87223,0c0.737334,0 1.016865,-0.05398 1.304931,-0.208039c0.238792,-0.127708 0.423208,-0.312123 0.550915,-0.550915c0.154059,-0.288066 0.208039,-0.567597 0.208039,-1.304931l0,-4.87223c0,-0.737334 -0.05398,-1.016865 -0.208039,-1.304931c-0.127707,-0.238792 -0.312123,-0.423208 -0.550915,-0.550915c-0.288066,-0.154059 -0.567597,-0.208039 -1.304931,-0.208039l-12.87223,0z" fill="#1abda0" fill-rule="nonzero" id="Rectangle"/>
     </g>
    </g>
   </g>
  </g>
 </g>
</svg>