<?xml version="1.0"?>
<svg width="40" height="38" xmlns="http://www.w3.org/2000/svg" xmlns:svg="http://www.w3.org/2000/svg">
 <g class="layer">
  <title>Layer 1</title>
  <g fill="none" fill-rule="evenodd" id="Collection">
   <g id="System-Icons" stroke="#1abda0" transform="translate(-572.000000, -1648.000000)">
    <g id="disposition/salle-seche/theatre" transform="translate(572.000000, 1647.000000)">
     <g id="Group-Copy" transform="translate(0.000000, 1.000000)">
      <circle cx="16" cy="14" fill="#1cedc7" fill-rule="nonzero" id="chair-2" r="2.5"/>
      <circle cx="16" cy="28" fill="#1cedc7" fill-rule="nonzero" id="chair-2-Copy-5" r="2.5"/>
      <circle cx="8" cy="28" fill="#1cedc7" fill-rule="nonzero" id="chair-2-Copy-7" r="2.5"/>
      <circle cx="24" cy="14" fill="#1cedc7" fill-rule="nonzero" id="chair-2-Copy" r="2.5"/>
      <circle cx="24" cy="28" fill="#1cedc7" fill-rule="nonzero" id="chair-2-Copy-6" r="2.5"/>
      <circle cx="32" cy="28" fill="#1cedc7" fill-rule="nonzero" id="chair-2-Copy-8" r="2.5"/>
      <circle cx="20" cy="21" fill="#1cedc7" fill-rule="nonzero" id="chair-2-Copy-2" r="2.5"/>
      <circle cx="20" cy="35" fill="#1cedc7" fill-rule="nonzero" id="chair-2-Copy-9" r="2.5"/>
      <circle cx="12" cy="21" fill="#1cedc7" fill-rule="nonzero" id="chair-2-Copy-4" r="2.5"/>
      <circle cx="12" cy="35" fill="#1cedc7" fill-rule="nonzero" id="chair-2-Copy-10" r="2.5"/>
      <circle cx="4" cy="35" fill="#1cedc7" fill-rule="nonzero" id="chair-2-Copy-13" r="2.5"/>
      <circle cx="28" cy="21" fill="#1cedc7" fill-rule="nonzero" id="chair-2-Copy-3" r="2.5"/>
      <circle cx="28" cy="35" fill="#1cedc7" fill-rule="nonzero" id="chair-2-Copy-11" r="2.5"/>
      <circle cx="36" cy="35" fill="#1cedc7" fill-rule="nonzero" id="chair-2-Copy-12" r="2.5"/>
      <path d="m2.56389,0.5c-0.73734,0 -1.01687,0.05398 -1.30494,0.20804c-0.23879,0.12771 -0.4232,0.31212 -0.55091,0.55091c-0.15406,0.28807 -0.20804,0.5676 -0.20804,1.30494l0,2.87222c0,0.73734 0.05398,1.01687 0.20804,1.30494c0.12771,0.23879 0.31212,0.4232 0.55091,0.55091c0.28807,0.15406 0.5676,0.20804 1.30494,0.20804l34.87222,0c0.73734,0 1.01687,-0.05398 1.30494,-0.20804c0.23879,-0.12771 0.4232,-0.31212 0.55091,-0.55091c0.15406,-0.28807 0.20804,-0.5676 0.20804,-1.30494l0,-2.87222c0,-0.73734 -0.05398,-1.01687 -0.20804,-1.30494c-0.12771,-0.23879 -0.31212,-0.4232 -0.55091,-0.55091c-0.28807,-0.15406 -0.5676,-0.20804 -1.30494,-0.20804l-34.87222,0z" fill="#1abda0" fill-rule="nonzero" id="Rectangle"/>
     </g>
    </g>
   </g>
  </g>
 </g>
</svg>